<svg width="129" height="30" viewBox="0 0 129 30" fill="none" xmlns="http://www.w3.org/2000/svg">
<path d="M4.87 2.03H11.98L8.8 17.03H16.63L15.37 23H0.43L4.87 2.03ZM23.0896 7.28C22.2296 7.28 21.5396 7.04 21.0196 6.56C20.4996 6.06 20.2396 5.42 20.2396 4.64C20.2396 3.9 20.4396 3.21 20.8396 2.57C21.2396 1.91 21.7696 1.39 22.4296 1.01C23.0896 0.629999 23.7896 0.439999 24.5296 0.439999C25.3696 0.439999 26.0496 0.699999 26.5696 1.22C27.1096 1.72 27.3796 2.36 27.3796 3.14C27.3796 3.38 27.3496 3.62 27.2896 3.86C27.0896 4.84 26.5796 5.66 25.7596 6.32C24.9596 6.96 24.0696 7.28 23.0896 7.28ZM19.4596 8.6H26.2096L23.1496 23H16.3996L19.4596 8.6ZM31.9023 29.9C30.9423 29.9 29.9823 29.81 29.0223 29.63C28.0623 29.45 27.2523 29.2 26.5923 28.88L27.4923 24.59C28.9523 25.27 30.7223 25.61 32.8023 25.61C35.0023 25.61 36.3023 24.71 36.7023 22.91L36.8823 22.1C36.3223 22.5 35.6223 22.82 34.7823 23.06C33.9623 23.32 33.1323 23.45 32.2923 23.45C30.3523 23.45 28.8223 22.93 27.7023 21.89C26.6023 20.85 26.0523 19.46 26.0523 17.72C26.0523 17.06 26.1223 16.42 26.2623 15.8C26.7623 13.44 27.8123 11.58 29.4123 10.22C31.0323 8.84 33.0823 8.15 35.5623 8.15C36.4223 8.15 37.2223 8.3 37.9623 8.6C38.7223 8.9 39.3123 9.3 39.7323 9.8L40.0023 8.6H46.5123L43.6923 21.86C43.1523 24.4 41.9123 26.37 39.9723 27.77C38.0323 29.19 35.3423 29.9 31.9023 29.9ZM35.2623 18.23C35.7823 18.23 36.2823 18.11 36.7623 17.87C37.2623 17.63 37.6723 17.3 37.9923 16.88L38.4423 14.72C38.3023 14.3 38.0423 13.97 37.6623 13.73C37.2823 13.49 36.8323 13.37 36.3123 13.37C35.5123 13.37 34.8423 13.57 34.3023 13.97C33.7623 14.37 33.4123 14.97 33.2523 15.77C33.1723 16.21 33.1323 16.51 33.1323 16.67C33.1323 17.21 33.3023 17.61 33.6423 17.87C33.9823 18.11 34.5223 18.23 35.2623 18.23ZM50.2572 0.829999H57.0072L55.1172 9.71C56.6372 8.67 58.2072 8.15 59.8272 8.15C61.4872 8.15 62.7272 8.53 63.5472 9.29C64.3872 10.03 64.8072 11.07 64.8072 12.41C64.8072 12.93 64.7472 13.49 64.6272 14.09L62.7372 23H55.9872L57.6672 15.08C57.7072 14.76 57.7272 14.55 57.7272 14.45C57.7272 13.73 57.3372 13.37 56.5572 13.37C55.5572 13.37 54.7172 13.82 54.0372 14.72L52.2972 23H45.5472L50.2572 0.829999ZM71.248 23.45C69.628 23.45 68.408 23.07 67.588 22.31C66.788 21.55 66.388 20.5 66.388 19.16C66.388 18.72 66.458 18.13 66.598 17.39L67.528 13.04H65.578L66.538 8.6H68.488L69.388 4.28H76.138L75.238 8.6H78.358L77.398 13.04H74.278L73.558 16.4C73.498 16.7 73.468 16.95 73.468 17.15C73.468 17.53 73.568 17.81 73.768 17.99C73.988 18.15 74.318 18.23 74.758 18.23C75.498 18.23 76.258 18.02 77.038 17.6L75.958 22.58C75.298 22.88 74.608 23.1 73.888 23.24C73.168 23.38 72.288 23.45 71.248 23.45ZM95.6411 23.45C93.8611 23.45 92.3511 23.13 91.1111 22.49C89.8711 21.85 88.9311 20.97 88.2911 19.85C87.6711 18.73 87.3611 17.43 87.3611 15.95C87.3611 15.19 87.4511 14.39 87.6311 13.55L90.0911 2.03H97.2011L94.8011 13.34C94.6811 13.9 94.6211 14.4 94.6211 14.84C94.6211 15.54 94.8011 16.06 95.1611 16.4C95.5411 16.74 96.1711 16.91 97.0511 16.91C98.0911 16.91 98.9111 16.61 99.5111 16.01C100.111 15.41 100.531 14.52 100.771 13.34L103.171 2.03H110.311L107.851 13.55C106.451 20.15 102.381 23.45 95.6411 23.45ZM110.892 8.6H117.402L117.132 9.8C117.772 9.3 118.532 8.9 119.412 8.6C120.292 8.3 121.162 8.15 122.022 8.15C123.902 8.15 125.412 8.68 126.552 9.74C127.692 10.8 128.262 12.22 128.262 14C128.262 14.56 128.202 15.16 128.082 15.8C127.762 17.3 127.162 18.63 126.282 19.79C125.402 20.95 124.312 21.85 123.012 22.49C121.712 23.13 120.292 23.45 118.752 23.45C117.912 23.45 117.142 23.32 116.442 23.06C115.742 22.82 115.182 22.5 114.762 22.1L113.172 29.57H106.452L110.892 8.6ZM118.002 18.23C118.802 18.23 119.472 18.02 120.012 17.6C120.552 17.18 120.912 16.57 121.092 15.77C121.132 15.61 121.152 15.39 121.152 15.11C121.152 14.53 120.972 14.1 120.612 13.82C120.252 13.52 119.732 13.37 119.052 13.37C118.532 13.37 118.022 13.49 117.522 13.73C117.042 13.97 116.642 14.3 116.322 14.72L115.872 16.88C116.012 17.3 116.272 17.63 116.652 17.87C117.032 18.11 117.482 18.23 118.002 18.23Z" fill="black"/>
</svg>
