<svg width="139" height="30" viewBox="0 0 139 30" fill="none" xmlns="http://www.w3.org/2000/svg">
<path d="M4.87 2.03H11.98L8.8 17.03H16.63L15.37 23H0.43L4.87 2.03ZM24.5896 7.28C23.7296 7.28 23.0396 7.04 22.5196 6.56C21.9996 6.06 21.7396 5.42 21.7396 4.64C21.7396 3.9 21.9396 3.21 22.3396 2.57C22.7396 1.91 23.2696 1.39 23.9296 1.01C24.5896 0.629999 25.2896 0.439999 26.0296 0.439999C26.8696 0.439999 27.5496 0.699999 28.0696 1.22C28.6096 1.72 28.8796 2.36 28.8796 3.14C28.8796 3.38 28.8496 3.62 28.7896 3.86C28.5896 4.84 28.0796 5.66 27.2596 6.32C26.4596 6.96 25.5696 7.28 24.5896 7.28ZM20.9596 8.6H27.7096L24.6496 23H17.8996L20.9596 8.6ZM34.9023 29.9C33.9423 29.9 32.9823 29.81 32.0223 29.63C31.0623 29.45 30.2523 29.2 29.5923 28.88L30.4923 24.59C31.9523 25.27 33.7223 25.61 35.8023 25.61C38.0023 25.61 39.3023 24.71 39.7023 22.91L39.8823 22.1C39.3223 22.5 38.6223 22.82 37.7823 23.06C36.9623 23.32 36.1323 23.45 35.2923 23.45C33.3523 23.45 31.8223 22.93 30.7023 21.89C29.6023 20.85 29.0523 19.46 29.0523 17.72C29.0523 17.06 29.1223 16.42 29.2623 15.8C29.7623 13.44 30.8123 11.58 32.4123 10.22C34.0323 8.84 36.0823 8.15 38.5623 8.15C39.4223 8.15 40.2223 8.3 40.9623 8.6C41.7223 8.9 42.3123 9.3 42.7323 9.8L43.0023 8.6H49.5123L46.6923 21.86C46.1523 24.4 44.9123 26.37 42.9723 27.77C41.0323 29.19 38.3423 29.9 34.9023 29.9ZM38.2623 18.23C38.7823 18.23 39.2823 18.11 39.7623 17.87C40.2623 17.63 40.6723 17.3 40.9923 16.88L41.4423 14.72C41.3023 14.3 41.0423 13.97 40.6623 13.73C40.2823 13.49 39.8323 13.37 39.3123 13.37C38.5123 13.37 37.8423 13.57 37.3023 13.97C36.7623 14.37 36.4123 14.97 36.2523 15.77C36.1723 16.21 36.1323 16.51 36.1323 16.67C36.1323 17.21 36.3023 17.61 36.6423 17.87C36.9823 18.11 37.5223 18.23 38.2623 18.23ZM54.7572 0.829999H61.5072L59.6172 9.71C61.1372 8.67 62.7072 8.15 64.3272 8.15C65.9872 8.15 67.2272 8.53 68.0472 9.29C68.8872 10.03 69.3072 11.07 69.3072 12.41C69.3072 12.93 69.2472 13.49 69.1272 14.09L67.2372 23H60.4872L62.1672 15.08C62.2072 14.76 62.2272 14.55 62.2272 14.45C62.2272 13.73 61.8372 13.37 61.0572 13.37C60.0572 13.37 59.2172 13.82 58.5372 14.72L56.7972 23H50.0472L54.7572 0.829999ZM77.248 23.45C75.628 23.45 74.408 23.07 73.588 22.31C72.788 21.55 72.388 20.5 72.388 19.16C72.388 18.72 72.458 18.13 72.598 17.39L73.528 13.04H71.578L72.538 8.6H74.488L75.388 4.28H82.138L81.238 8.6H84.358L83.398 13.04H80.278L79.558 16.4C79.498 16.7 79.468 16.95 79.468 17.15C79.468 17.53 79.568 17.81 79.768 17.99C79.988 18.15 80.318 18.23 80.758 18.23C81.498 18.23 82.258 18.02 83.038 17.6L81.958 22.58C81.298 22.88 80.608 23.1 79.888 23.24C79.168 23.38 78.288 23.45 77.248 23.45ZM104.641 23.45C102.861 23.45 101.351 23.13 100.111 22.49C98.8711 21.85 97.9311 20.97 97.2911 19.85C96.6711 18.73 96.3611 17.43 96.3611 15.95C96.3611 15.19 96.4511 14.39 96.6311 13.55L99.0911 2.03H106.201L103.801 13.34C103.681 13.9 103.621 14.4 103.621 14.84C103.621 15.54 103.801 16.06 104.161 16.4C104.541 16.74 105.171 16.91 106.051 16.91C107.091 16.91 107.911 16.61 108.511 16.01C109.111 15.41 109.531 14.52 109.771 13.34L112.171 2.03H119.311L116.851 13.55C115.451 20.15 111.381 23.45 104.641 23.45ZM121.392 8.6H127.902L127.632 9.8C128.272 9.3 129.032 8.9 129.912 8.6C130.792 8.3 131.662 8.15 132.522 8.15C134.402 8.15 135.912 8.68 137.052 9.74C138.192 10.8 138.762 12.22 138.762 14C138.762 14.56 138.702 15.16 138.582 15.8C138.262 17.3 137.662 18.63 136.782 19.79C135.902 20.95 134.812 21.85 133.512 22.49C132.212 23.13 130.792 23.45 129.252 23.45C128.412 23.45 127.642 23.32 126.942 23.06C126.242 22.82 125.682 22.5 125.262 22.1L123.672 29.57H116.952L121.392 8.6ZM128.502 18.23C129.302 18.23 129.972 18.02 130.512 17.6C131.052 17.18 131.412 16.57 131.592 15.77C131.632 15.61 131.652 15.39 131.652 15.11C131.652 14.53 131.472 14.1 131.112 13.82C130.752 13.52 130.232 13.37 129.552 13.37C129.032 13.37 128.522 13.49 128.022 13.73C127.542 13.97 127.142 14.3 126.822 14.72L126.372 16.88C126.512 17.3 126.772 17.63 127.152 17.87C127.532 18.11 127.982 18.23 128.502 18.23Z" fill="white"/>
</svg>
