<svg width="208" height="182" viewBox="0 0 208 182" fill="none" xmlns="http://www.w3.org/2000/svg">
<g clip-path="url(#clip0)">
<path d="M115.976 181.447C157.62 181.447 191.38 175.512 191.38 168.192C191.38 160.871 157.62 154.937 115.976 154.937C74.3325 154.937 40.5734 160.871 40.5734 168.192C40.5734 175.512 74.3325 181.447 115.976 181.447Z" fill="#3F3D56"/>
<path d="M65.7957 82.3698C70.5885 75.2808 72.6695 66.7174 71.6614 58.2326C70.6533 49.7478 66.6227 41.9034 60.3007 36.122C53.9787 30.3405 45.7839 27.0048 37.2022 26.7198C28.6206 26.4349 20.2205 29.2194 13.5252 34.5686C6.82983 39.9178 2.28265 47.4773 0.708229 55.8763C-0.866192 64.2754 0.636397 72.9578 4.94351 80.349C9.25062 87.7402 16.0771 93.3509 24.1849 96.1635C32.2927 98.9761 41.145 98.8044 49.1365 95.6795C49.6546 97.5196 50.6232 99.2032 51.9555 100.579C53.2879 101.956 54.9424 102.982 56.771 103.566C58.5996 104.15 60.5451 104.273 62.4335 103.926C64.3219 103.578 66.0942 102.77 67.5917 101.573C69.0892 100.377 70.2651 98.8297 71.0143 97.0701C71.7635 95.3106 72.0625 93.3936 71.8845 91.4909C71.7066 89.5882 71.0573 87.7591 69.9947 86.1673C68.9321 84.5755 67.4894 83.2708 65.7957 82.3698Z" fill="#ECA359"/>
<path d="M57.3228 55.2822H14.6117V58.6375H57.3228V55.2822Z" fill="white"/>
<path d="M57.3228 60.8743H14.6117V64.2296H57.3228V60.8743Z" fill="white"/>
<path d="M57.3228 66.4664H14.6117V69.8216H57.3228V66.4664Z" fill="white"/>
<path d="M142.204 55.7935C137.411 48.7045 135.33 40.1411 136.339 31.6563C137.347 23.1715 141.377 15.3271 147.699 9.54563C154.021 3.76418 162.216 0.428509 170.798 0.143522C179.379 -0.141465 187.78 2.6431 194.475 7.99226C201.17 13.3414 205.717 20.901 207.292 29.3C208.866 37.6991 207.364 46.3815 203.057 53.7727C198.749 61.1639 191.923 66.7746 183.815 69.5872C175.707 72.3997 166.855 72.2281 158.863 69.1032C158.345 70.9433 157.377 72.6268 156.044 74.0031C154.712 75.3794 153.058 76.4054 151.229 76.9894C149.4 77.5734 147.455 77.697 145.566 77.3493C143.678 77.0016 141.906 76.1934 140.408 74.997C138.911 73.8006 137.735 72.2533 136.986 70.4938C136.237 68.7342 135.938 66.8173 136.115 64.9146C136.293 63.0119 136.943 61.1827 138.005 59.591C139.068 57.9992 140.511 56.6944 142.204 55.7935Z" fill="#ECA359"/>
<path d="M150.677 32.0612L193.388 32.0612V28.7059L150.677 28.7059V32.0612Z" fill="white"/>
<path d="M150.677 37.6533L193.388 37.6533V34.298L150.677 34.298V37.6533Z" fill="white"/>
<path d="M150.677 43.2454L193.388 43.2454V39.8901L150.677 39.8901V43.2454Z" fill="white"/>
<path d="M79.8546 153.584C77.1789 149.626 76.0171 144.846 76.5799 140.109C77.1427 135.372 79.3929 130.992 82.9224 127.765C86.4519 124.537 91.027 122.675 95.818 122.515C100.609 122.356 105.299 123.911 109.037 126.897C112.775 129.884 115.313 134.104 116.192 138.793C117.071 143.482 116.232 148.329 113.828 152.456C111.423 156.582 107.612 159.715 103.085 161.285C98.5589 162.855 93.6168 162.759 89.1552 161.015C88.866 162.042 88.3253 162.982 87.5814 163.75C86.8376 164.519 85.9139 165.092 84.893 165.418C83.8722 165.744 82.786 165.813 81.7317 165.618C80.6774 165.424 79.688 164.973 78.852 164.305C78.0159 163.637 77.3594 162.773 76.9412 161.791C76.5229 160.809 76.356 159.739 76.4553 158.676C76.5547 157.614 76.9172 156.593 77.5104 155.704C78.1037 154.816 78.9091 154.087 79.8546 153.584Z" fill="#ECA359"/>
<path d="M88.6142 144.303C89.8953 144.303 90.9339 143.27 90.9339 141.995C90.9339 140.72 89.8953 139.687 88.6142 139.687C87.333 139.687 86.2944 140.72 86.2944 141.995C86.2944 143.27 87.333 144.303 88.6142 144.303Z" fill="white"/>
<path d="M96.5286 144.303C97.8097 144.303 98.8483 143.27 98.8483 141.995C98.8483 140.72 97.8097 139.687 96.5286 139.687C95.2474 139.687 94.2088 140.72 94.2088 141.995C94.2088 143.27 95.2474 144.303 96.5286 144.303Z" fill="white"/>
<path d="M104.443 144.303C105.724 144.303 106.763 143.27 106.763 141.995C106.763 140.72 105.724 139.687 104.443 139.687C103.162 139.687 102.123 140.72 102.123 141.995C102.123 143.27 103.162 144.303 104.443 144.303Z" fill="white"/>
<path d="M98.8516 70.3865C98.8516 70.3865 109.202 70.6665 110.911 71.2853C112.621 71.9041 113.385 76.3294 113.385 76.3294L105.349 78.8428L99.3381 78.504L94.8144 78.822L97.3403 72.2395L98.8516 70.3865Z" fill="#2F2E41"/>
<path d="M99.2981 67.007C99.2981 67.007 99.979 69.6241 98.4677 71.4772C96.9563 73.3303 104.965 79.9335 104.965 79.9335L109.19 79.2109C109.19 79.2109 108.259 71.1695 109.509 69.1332C110.76 67.0969 99.2981 67.007 99.2981 67.007Z" fill="#9F616A"/>
<path opacity="0.1" d="M99.2981 67.007C99.2981 67.007 99.979 69.6241 98.4677 71.4772C96.9563 73.3303 104.965 79.9335 104.965 79.9335L109.19 79.2109C109.19 79.2109 108.259 71.1695 109.509 69.1332C110.76 67.0969 99.2981 67.007 99.2981 67.007Z" fill="black"/>
<path d="M127.396 143.525L118.074 155.826L124.436 159.522L133.191 145.267L127.396 143.525Z" fill="#9F616A"/>
<path d="M120.857 156.033C120.857 156.033 117.424 152.065 117.577 152.95C117.73 153.835 115.135 161.34 117.549 162.066C119.964 162.792 140.671 164.718 140.956 162.391C141.241 160.064 134.779 158.436 134.779 158.436C134.779 158.436 130.94 154.765 130.088 155.138C129.237 155.511 120.857 156.033 120.857 156.033Z" fill="#2F2E41"/>
<path d="M125.304 155.273L132.75 167.895L138.371 164.656L130.863 154.322L125.304 155.273Z" fill="#9F616A"/>
<path d="M137.058 125.244L134.848 128.355C134.848 128.355 124.314 142.913 125.433 144.089C126.551 145.264 131.211 149.707 133.58 148.846C135.95 147.985 144.368 133.105 144.368 133.105L142.172 124.369L137.058 125.244Z" fill="#2F2E41"/>
<path d="M91.6789 122.298C91.6789 122.298 94.038 126.678 100.017 128.161C105.997 129.645 112.244 132.677 112.466 132.639C112.689 132.601 113.317 132.265 113.47 133.15C113.623 134.035 115.263 135.577 115.263 135.577C115.263 135.577 121.868 157.911 124.39 157.935C126.913 157.959 132.097 156.161 132.204 155.459C132.312 154.758 124.481 131.951 124.404 131.508L123.487 126.198C123.487 126.198 133.844 127.843 134.81 128.134C135.776 128.424 144.368 133.105 144.368 133.105C144.368 133.105 153.127 126.823 144.934 120.479C136.742 114.136 122.66 109.482 122.66 109.482L117.608 108.068L113.205 107.807L112.557 105.333L102.13 105.932L91.248 110.526L91.6789 122.298Z" fill="#2F2E41"/>
<path d="M105.441 72.2163C109.927 72.2163 113.563 68.5978 113.563 64.1341C113.563 59.6705 109.927 56.0519 105.441 56.0519C100.955 56.0519 97.3184 59.6705 97.3184 64.1341C97.3184 68.5978 100.955 72.2163 105.441 72.2163Z" fill="#9F616A"/>
<path d="M98.0924 70.6302L99.0693 70.4631C99.0693 70.4631 100.834 77.2231 106.292 78.3397C106.292 78.3397 108.985 75.1293 108.87 74.5876C108.755 74.0459 111.003 71.1557 112.198 72.7736C113.394 74.3916 111.907 102.893 112.911 103.404C113.915 103.916 116.069 104.459 114.335 106.35C112.602 108.241 105.715 110.786 104.19 109.907C102.665 109.029 99.5483 101.589 98.2002 99.0864C96.8522 96.5834 94.6945 88.0684 94.6945 88.0684C94.6945 88.0684 91.9393 78.7443 93.6348 76.6319C95.3303 74.5196 98.0924 70.6302 98.0924 70.6302Z" fill="#D0CDE1"/>
<path d="M105.866 105.718C105.684 107.703 105.374 109.675 104.936 111.62C104.537 113.203 104.073 114.159 103.544 114.118C102.194 114.018 101.58 115.989 101.263 118.261C100.925 120.672 100.925 123.422 100.739 124.394C100.494 125.678 98.9222 126.658 95.7818 126.37C93.9115 126.159 92.076 125.711 90.3195 125.037C86.0796 123.503 86.2051 111.064 86.9145 101.833C87.3483 96.1752 88.0004 91.72 88.0004 91.72C88.0004 91.72 86.7126 87.8974 86.3006 85.2775C86.2186 84.7995 86.1775 84.3154 86.1778 83.8305C86.2405 81.5418 90.4396 75.3573 92.977 71.5048C95.5171 67.6523 98.9822 70.4786 98.9822 70.4786L97.7763 74.1002C97.7763 74.1002 99.6452 76.9699 99.6589 79.7011C99.6725 82.4323 104.133 84.4033 105.735 85.7255C106.742 86.5563 106.717 97.6467 105.866 105.718Z" fill="#2F2E41"/>
<path d="M109.393 71.7728C109.393 71.7728 109.686 72.117 111.026 71.9491C112.633 71.7477 114.843 72.301 115.357 73.8281C116.298 76.6284 118.953 88.0199 118.953 88.0199C118.953 88.0199 120.058 101.043 120.555 103.92C121.051 106.796 120.805 109.344 121.295 110.855C121.784 112.365 116.458 108.037 114.495 108.601C112.532 109.164 111.271 101.863 111.518 99.3146C111.764 96.7666 111.973 93.9974 111.292 91.3803C110.611 88.7632 111.818 81.8367 111.773 80.2498C111.728 78.663 107.444 74.6636 109.393 71.7728Z" fill="#2F2E41"/>
<path d="M115.14 112.249C115.14 112.249 123.74 116.918 124.563 123.562C125.386 130.207 113.06 117.128 113.06 117.128L115.14 112.249Z" fill="#9F616A"/>
<path d="M120.049 107.537C120.049 107.537 122.685 120.754 126.79 120.052C130.895 119.35 124.497 106.776 124.497 106.776L120.049 107.537Z" fill="#9F616A"/>
<path d="M134.108 165.157C134.108 165.157 132.006 167.567 131.485 167.2C130.964 166.834 129.765 171.822 130.846 172.777C131.926 173.731 136.089 175.297 136.134 176.884C136.179 178.471 147.342 178.156 147.742 176.493C148.141 174.83 146.342 171.038 145.077 170.343C143.812 169.648 139.136 163.252 139.136 163.252C139.136 163.252 135.474 163.784 134.108 165.157Z" fill="#2F2E41"/>
<path opacity="0.1" d="M113.77 120.332C111.776 118.932 106.207 118.584 101.263 118.261C99.0941 118.123 97.0451 117.987 95.4708 117.767C93.9538 117.558 92.5896 116.179 91.3782 114.123C89.542 111.009 88.0577 106.34 86.9145 101.833C87.3483 96.1752 88.0004 91.72 88.0004 91.72C88.0004 91.72 86.7126 87.8975 86.3006 85.2776C86.591 84.8754 86.9651 84.5402 87.3974 84.2948C92.6414 82.055 97.6481 104.097 98.2838 107.556C98.2947 107.613 98.3029 107.667 98.3111 107.714C98.6194 109.495 101.951 111.018 104.936 111.62C106.775 111.992 108.485 112.017 109.274 111.533C111.345 110.268 117.713 115.332 118.196 115.475C118.679 115.622 116.635 122.35 113.77 120.332Z" fill="black"/>
<path d="M87.3983 82.9379C87.3983 82.9379 83.5869 84.7288 85.2616 93.0986C86.9363 101.469 90.3099 115.698 95.4694 116.411C100.629 117.123 110.903 116.96 113.769 118.976C116.635 120.991 118.678 114.264 118.195 114.118C117.713 113.973 111.344 108.912 109.273 110.177C107.202 111.442 98.8083 109.233 98.3114 106.357C97.8146 103.481 92.728 80.6596 87.3983 82.9379Z" fill="#2F2E41"/>
<path d="M114.863 78.924L119.052 88.5957C119.052 88.5957 119.474 88.3864 119.964 89.8971C120.454 91.4079 120.683 92.7355 121.541 93.7277C122.399 94.7199 126.218 108.874 126.332 109.538C126.447 110.201 121.059 112.49 119.855 110.645C118.651 108.801 114.863 78.924 114.863 78.924Z" fill="#2F2E41"/>
<path d="M100.82 64.0217C101.131 63.939 101.177 63.5277 101.187 63.2073C101.243 61.4913 102.281 59.7306 103.932 59.2311C104.566 59.0582 105.229 59.0219 105.877 59.1246C106.803 59.2473 107.697 59.544 108.512 59.9991C108.942 60.2396 109.363 60.5293 109.851 60.6027C110.173 60.6513 111.568 61.0547 111.888 61.1115C112.593 61.2363 113.249 61.864 113.925 61.6304C114.573 61.407 114.716 60.573 114.731 59.8914C114.767 58.3386 113.583 56.1895 112.539 55.0344C111.747 54.1578 110.555 53.7531 109.389 53.5427C108.028 53.325 106.648 53.2415 105.27 53.2933C103.405 53.3264 101.488 53.4697 99.8064 54.2728C98.1245 55.0758 96.7118 56.6741 96.6312 58.5286C96.6144 58.9149 96.6544 59.3028 96.6218 59.6882C96.5422 60.6281 96.0406 61.4771 95.8052 62.3909C95.637 63.0614 95.6119 63.7595 95.7314 64.4402C95.851 65.1209 96.1126 65.7692 96.4993 66.3431C97.1235 67.2572 98.1046 68.0839 98.0685 69.1884L99.4219 67.7931C99.6241 67.6395 99.7672 67.4216 99.8273 67.1757C99.8875 66.9298 99.8611 66.6708 99.7525 66.4419L99.2734 64.5826C99.1503 64.2506 99.1358 63.8884 99.232 63.5478C99.7455 62.285 100.301 64.1595 100.82 64.0217Z" fill="#2F2E41"/>
<path d="M162.33 157.01C162.273 156.918 160.951 154.721 160.492 150.158C160.072 145.972 160.342 138.915 164.02 129.072C170.987 110.425 162.414 95.3797 162.327 95.2298L162.75 94.9857C162.772 95.0237 164.984 98.8597 166.291 104.968C168.018 113.066 167.389 121.486 164.478 129.242C157.523 147.857 162.694 156.669 162.747 156.756L162.33 157.01Z" fill="#3F3D56"/>
<path d="M159.605 94.1349C161.36 94.1349 162.783 92.7194 162.783 90.9732C162.783 89.227 161.36 87.8115 159.605 87.8115C157.85 87.8115 156.428 89.227 156.428 90.9732C156.428 92.7194 157.85 94.1349 159.605 94.1349Z" fill="#ECA359"/>
<path d="M169.626 105.809C171.381 105.809 172.804 104.393 172.804 102.647C172.804 100.901 171.381 99.4855 169.626 99.4855C167.872 99.4855 166.449 100.901 166.449 102.647C166.449 104.393 167.872 105.809 169.626 105.809Z" fill="#3F3D56"/>
<path d="M162.783 113.592C164.537 113.592 165.96 112.176 165.96 110.43C165.96 108.684 164.537 107.268 162.783 107.268C161.028 107.268 159.605 108.684 159.605 110.43C159.605 112.176 161.028 113.592 162.783 113.592Z" fill="#ECA359"/>
<path d="M171.093 120.158C172.848 120.158 174.27 118.743 174.27 116.997C174.27 115.25 172.848 113.835 171.093 113.835C169.338 113.835 167.915 115.25 167.915 116.997C167.915 118.743 169.338 120.158 171.093 120.158Z" fill="#ECA359"/>
<path d="M160.338 130.373C162.093 130.373 163.516 128.957 163.516 127.211C163.516 125.465 162.093 124.05 160.338 124.05C158.584 124.05 157.161 125.465 157.161 127.211C157.161 128.957 158.584 130.373 160.338 130.373Z" fill="#3F3D56"/>
<path d="M164.249 157.126C164.249 157.126 161.072 149.343 170.604 143.506L164.249 157.126Z" fill="#3F3D56"/>
<path d="M160.341 156.985C160.341 156.985 158.895 148.709 147.703 148.779L160.341 156.985Z" fill="#3F3D56"/>
</g>
<defs>
<clipPath id="clip0">
<rect width="208" height="181.447" fill="white"/>
</clipPath>
</defs>
</svg>
