<svg width="176" height="131" viewBox="0 0 176 131" fill="none" xmlns="http://www.w3.org/2000/svg">
<g clip-path="url(#clip0)">
<path d="M126.876 122.941H19.6648V123.394H126.876V122.941Z" fill="#3F3D56"/>
<path d="M76.5208 60.6538C76.5208 60.6538 74.2455 70.8355 78.796 69.0254C83.3466 67.2153 80.6163 60.2012 80.6163 60.2012L76.5208 60.6538Z" fill="#FFB9B9"/>
<path d="M119.069 64.0477C119.069 64.0477 124.529 70.6093 121.116 71.9669C117.703 73.3244 115.883 65.8578 116.338 65.179C116.793 64.5003 119.069 64.0477 119.069 64.0477Z" fill="#FFB9B9"/>
<path d="M106.099 17.6641C109.869 17.6641 112.925 14.6251 112.925 10.8762C112.925 7.1274 109.869 4.08838 106.099 4.08838C102.33 4.08838 99.2736 7.1274 99.2736 10.8762C99.2736 14.6251 102.33 17.6641 106.099 17.6641Z" fill="#FFB9B9"/>
<path d="M100.98 13.4783L100.07 20.4923L107.578 23.2074L109.171 15.2882L100.98 13.4783Z" fill="#FFB9B9"/>
<path d="M105.189 20.3792C105.189 20.3792 101.332 18.4856 100.53 16.9435L98.8185 18.5691C98.8185 18.5691 86.532 17.4378 84.7117 23.5469C82.8915 29.6559 84.4842 51.8296 84.4842 51.8296C84.4842 51.8296 81.9814 61.7851 82.664 62.0113C83.3466 62.2376 91.7651 66.3103 103.597 64.0477C103.597 64.0477 108.83 63.1426 109.74 63.8214C110.65 64.5002 109.285 52.9609 109.285 52.9609C109.285 52.9609 118.386 32.5973 116.793 30.1085C115.201 27.6196 108.147 22.4156 108.147 22.4156L108.602 19.9267C108.602 19.9267 105.417 21.2843 105.189 20.3792Z" fill="#CFCCE0"/>
<path d="M86.532 21.963C86.532 21.963 82.4365 23.9994 81.7539 27.167C81.0713 30.3347 74.7005 56.581 75.3831 58.1649C76.0657 59.7487 75.8382 61.7851 75.8382 61.7851L81.7539 61.1063C81.7539 61.1063 80.6163 59.5224 81.2989 58.8437C81.9814 58.1649 82.664 55.9022 82.209 54.9972C81.7539 54.0922 81.2989 55.676 83.8017 52.7346C86.3045 49.7932 91.9927 22.8681 86.532 21.963Z" fill="#CFCCE0"/>
<path d="M115.428 29.6559C115.428 29.6559 117.362 29.769 117.817 32.9367C118.272 36.1043 119.069 55.676 119.069 55.676C119.069 55.676 122.026 62.0113 120.889 62.9163C119.751 63.8214 120.434 65.179 120.434 65.179L116.338 66.3103L107.465 52.5083L115.428 29.6559Z" fill="#CFCCE0"/>
<path d="M83.3466 61.1063C83.3466 61.1063 81.9814 61.3326 81.9814 66.3103C81.9814 71.2881 79.4786 86.6739 81.0713 89.1628C82.664 91.6517 82.8915 114.052 82.8915 114.052C82.8915 114.052 87.2146 115.862 90.855 109.979L91.3101 106.811L92.2202 91.4254L95.8607 72.1932L100.866 93.4618C100.866 93.4618 100.184 119.029 102.687 119.029C105.189 119.029 109.967 116.993 109.967 116.993C109.967 116.993 111.105 114.73 110.65 113.599C110.195 112.468 109.74 112.694 110.195 111.789C110.65 110.884 111.333 87.3527 111.333 87.3527C111.333 87.3527 110.422 63.1427 109.285 62.4639C108.147 61.7851 83.3466 61.1063 83.3466 61.1063Z" fill="#2F2E41"/>
<path d="M83.3466 113.146L79.7062 116.993C79.7062 116.993 73.1078 123.102 78.796 123.328C84.4843 123.554 87.6697 119.708 87.6697 119.255C87.6697 118.803 87.8972 117.219 89.4899 117.219C91.0826 117.219 94.9506 113.373 94.0404 111.789C93.1303 110.205 90.4 109.526 90.4 109.526L83.3466 113.146Z" fill="#2F2E41"/>
<path d="M102.914 118.124C102.914 118.124 100.184 123.555 101.776 124.686C103.369 125.817 103.824 126.27 103.824 126.27C103.824 126.27 105.189 126.043 104.962 128.08C104.734 130.116 113.153 131.247 113.608 129.664C114.063 128.08 113.835 124.912 112.925 124.007C112.015 123.102 109.285 116.767 109.285 116.767C109.285 116.767 106.327 113.373 102.914 118.124Z" fill="#2F2E41"/>
<path d="M112.988 5.42576L114.274 5.24412C114.274 5.24412 112.484 1.96777 109.019 1.37284L110.236 0.556576C110.236 0.556576 108.122 -0.9453 105.391 0.985173C103.955 1.99998 102.288 3.19785 101.062 4.70559L99.8079 4.40075L100.05 5.67427L97.9357 6.37526L99.867 6.62643C99.6007 7.22692 99.426 7.86358 99.3487 8.51537C99.2738 9.16795 99.4568 9.82393 99.8591 10.3449C99.8591 10.3449 102.046 7.70796 102.161 7.24166L101.875 8.40739C101.875 8.40739 103.304 7.64289 103.476 6.94346L103.914 7.91473L104.548 6.71006L108.173 8.94982L107.792 7.7454L110.155 8.6903L109.512 7.17509C109.512 7.17509 111.908 9.36335 111.699 10.6715C111.49 11.9797 112.002 13.3917 112.002 13.3917C112.002 13.3917 115.646 7.92479 112.988 5.42576Z" fill="#2F2E41"/>
<path d="M176 82.3319H139.563V82.7655H176V82.3319Z" fill="#3F3D56"/>
<path d="M39.8019 115.74H31.0189V124.474H39.8019V115.74Z" fill="#CFCCE0"/>
<path d="M38.6462 123.325H29.4009V114.131H38.6462V123.325ZM29.8632 122.865H38.184V114.59H29.8632L29.8632 122.865Z" fill="#3F3D56"/>
<path d="M49.4112 39.4232L43.8528 41.561L45.9281 46.897L51.4865 44.7592L49.4112 39.4232Z" fill="#F2F2F2"/>
<path d="M50.4821 44.3384L44.6312 46.5887L42.4467 40.9718L48.2976 38.7216L50.4821 44.3384ZM44.8145 46.1953L50.0803 44.1701L48.1142 39.1149L42.8484 41.1401L44.8145 46.1953Z" fill="#3F3D56"/>
<path d="M151.547 104.473L149.609 98.8689L144.168 100.729L146.106 106.333L151.547 104.473Z" fill="#F2F2F2"/>
<path d="M146.567 105.351L144.527 99.4519L150.254 97.4939L152.294 103.393L146.567 105.351ZM144.916 99.6489L146.751 104.958L151.906 103.196L150.07 97.8868L144.916 99.6489Z" fill="#3F3D56"/>
<path d="M27.6343 76.6133C30.8931 76.6828 33.4855 79.0313 33.4855 79.0313C33.4855 79.0313 30.7942 81.267 27.5354 81.1975C24.2766 81.128 21.6843 78.7795 21.6843 78.7795C21.6843 78.7795 24.3755 76.5438 27.6343 76.6133Z" fill="#ECA359"/>
<path d="M11.2507 65.5512C14.1949 66.9421 17.5709 65.9989 17.5709 65.9989C17.5709 65.9989 16.1735 62.8005 13.2293 61.4096C10.2851 60.0186 6.90906 60.9618 6.90906 60.9618C6.90906 60.9618 8.30649 64.1602 11.2507 65.5512Z" fill="#ECA359"/>
<path d="M11.55 64.1689C14.796 63.8739 17.6372 65.9179 17.6372 65.9179C17.6372 65.9179 15.2156 68.4402 11.9696 68.7352C8.72356 69.0301 5.88232 66.9862 5.88232 66.9862C5.88232 66.9862 8.30394 64.4639 11.55 64.1689Z" fill="#3F3D56"/>
<path d="M23.4489 64.7278C23.1378 67.9545 25.1805 70.789 25.1805 70.789C25.1805 70.789 27.7276 68.3921 28.0387 65.1655C28.3499 61.9389 26.3072 59.1044 26.3072 59.1044C26.3072 59.1044 23.76 61.5012 23.4489 64.7278Z" fill="#3F3D56"/>
<path d="M38.7361 84.5166C37.0336 87.2807 37.6193 90.7189 37.6193 90.7189C37.6193 90.7189 40.9655 89.6757 42.6681 86.9116C44.3706 84.1475 43.7849 80.7092 43.7849 80.7092C43.7849 80.7092 40.4387 81.7525 38.7361 84.5166Z" fill="#3F3D56"/>
<path d="M33.7968 114.569L34.0449 114.403C33.1703 113.141 32.6928 111.648 32.673 110.116C32.6799 107.874 33.7873 105.8 34.8582 103.795C35.057 103.423 35.2551 103.052 35.4457 102.681C36.2457 101.169 36.8832 99.5774 37.3478 97.9325C39.0089 91.7939 37.3734 84.5514 32.973 78.5589C29.4822 73.8051 24.2784 69.6481 17.0645 65.8505L16.9244 66.1136C24.0973 69.8896 29.2677 74.018 32.7312 78.7345C37.0787 84.6549 38.6964 91.8028 37.0586 97.8552C36.5994 99.4799 35.9695 101.052 35.1791 102.545C34.9891 102.915 34.7918 103.284 34.5937 103.655C33.5057 105.693 32.3807 107.799 32.3735 110.115C32.3933 111.707 32.8887 113.258 33.7968 114.569Z" fill="#3F3D56"/>
<path d="M2.84477 66.2418C4.41586 66.2418 5.68948 64.9753 5.68948 63.4129C5.68948 61.8506 4.41586 60.584 2.84477 60.584C1.27368 60.584 6.10352e-05 61.8506 6.10352e-05 63.4129C6.10352e-05 64.9753 1.27368 66.2418 2.84477 66.2418Z" fill="#3F3D56"/>
<path d="M157.709 80.1225L121.092 67.0443L127.629 48.944L150.429 43.3837L164.246 62.0223L157.709 80.1225Z" fill="#2F2E41"/>
<path d="M153.273 76.5333L125.909 66.1603C133.013 56.6979 136.189 50.0232 136.192 39.5198L163.556 49.8928C157.199 58.8729 154.54 65.6237 153.273 76.5333Z" fill="#F2F2F2"/>
<path d="M155.427 51.3123L141.25 45.9384L140.999 46.5941L155.176 51.968L155.427 51.3123Z" fill="#3F3D56"/>
<path d="M154.421 53.9351L140.245 48.5612L139.993 49.2169L154.17 54.5908L154.421 53.9351Z" fill="#3F3D56"/>
<path d="M153.416 56.5579L139.239 51.184L138.988 51.8397L153.165 57.2136L153.416 56.5579Z" fill="#3F3D56"/>
<path d="M152.411 59.1807L138.234 53.8068L137.983 54.4625L152.159 59.8364L152.411 59.1807Z" fill="#3F3D56"/>
<path d="M151.405 61.8036L137.229 56.4296L136.977 57.0853L151.154 62.4593L151.405 61.8036Z" fill="#3F3D56"/>
<path d="M150.4 64.4264L136.223 59.0525L135.972 59.7082L150.148 65.0822L150.4 64.4264Z" fill="#3F3D56"/>
<path d="M149.394 67.0493L135.218 61.6753L134.966 62.331L149.143 67.705L149.394 67.0493Z" fill="#3F3D56"/>
<path d="M148.389 69.6721L134.212 64.2982L133.961 64.9539L148.138 70.3278L148.389 69.6721Z" fill="#3F3D56"/>
<path d="M156.863 82.4649L120.246 69.3867L127.629 48.944L143.092 63.362L164.246 62.0223L156.863 82.4649Z" fill="#3F3D56"/>
<path d="M138.257 76.0234L119.999 69.5023L124.448 57.184L124.811 57.3136L120.493 69.2709L138.388 75.6624L138.257 76.0234Z" fill="#ECA359"/>
<path d="M131.767 62.9233L126.414 61.0113L125.645 63.1407L130.998 65.0527L131.767 62.9233Z" fill="#ECA359"/>
<path d="M71.2392 123.102L42.5801 123.087L42.8051 107.087L57.0478 113.453L71.4641 107.486L71.2392 123.102Z" fill="#3F3D56"/>
<path d="M49.0519 115.842L44.8619 115.784L44.8385 117.451L49.0284 117.509L49.0519 115.842Z" fill="#ECA359"/>
<path d="M71.5599 107.464L57.0739 114.808L42.7297 107.464V107.04H71.5599V107.464Z" fill="#ECA359"/>
<path d="M154.837 46.9056C155.18 46.0122 153.441 44.5236 150.954 43.5808C148.466 42.6379 146.172 42.5978 145.83 43.4912C145.488 44.3845 147.226 45.8731 149.714 46.8159C152.201 47.7588 154.495 47.7989 154.837 46.9056Z" fill="#ECA359"/>
<path d="M158.773 19.6609C157.855 19.3768 156.889 19.2755 155.931 19.3626C154.973 19.4498 154.041 19.7238 153.19 20.1689C152.338 20.614 151.583 21.2215 150.967 21.9569C150.352 22.6922 149.888 23.5408 149.603 24.4544C148.401 28.2964 151.675 42.3614 151.675 42.3614C151.675 42.3614 162.392 32.6226 163.594 28.7806C164.17 26.9356 163.987 24.9383 163.083 23.228C162.179 21.5177 160.629 20.2346 158.773 19.6609ZM155.568 29.9127C154.912 29.7101 154.332 29.3187 153.9 28.7881C153.469 28.2575 153.205 27.6116 153.142 26.9319C153.08 26.2522 153.221 25.5694 153.549 24.9697C153.877 24.37 154.376 23.8804 154.984 23.5629C155.591 23.2453 156.28 23.1141 156.962 23.1857C157.645 23.2573 158.291 23.5286 158.818 23.9652C159.346 24.4018 159.731 24.9842 159.926 25.6387C160.12 26.2932 160.116 26.9904 159.912 27.6421C159.776 28.0749 159.557 28.4769 159.265 28.8252C158.974 29.1735 158.616 29.4613 158.213 29.6721C157.809 29.8829 157.368 30.0127 156.914 30.054C156.46 30.0953 156.003 30.0473 155.568 29.9127Z" fill="#ECA359"/>
</g>
<defs>
<clipPath id="clip0">
<rect width="176" height="130.41" fill="white"/>
</clipPath>
</defs>
</svg>
