<svg width="176" height="152" viewBox="0 0 176 152" fill="none" xmlns="http://www.w3.org/2000/svg">
<g clip-path="url(#clip0)">
<path d="M22.5334 18.6788C22.5334 18.6788 24.8434 24.1725 19.6459 26.7748C14.4484 29.377 33.5058 34.2924 35.5271 27.9313C35.5271 27.9313 30.3296 25.9073 32.6396 19.8354L22.5334 18.6788Z" fill="#FFB9B9"/>
<path d="M28.7416 132.166L28.4528 138.238L33.3614 139.106V133.034L28.7416 132.166Z" fill="#FFB9B9"/>
<path d="M10.2615 132.166L10.5503 138.238L5.64166 139.106V133.034L10.2615 132.166Z" fill="#FFB9B9"/>
<path d="M28.164 22.004C32.6292 22.004 36.2489 18.3793 36.2489 13.9081C36.2489 9.4368 32.6292 5.81213 28.164 5.81213C23.6988 5.81213 20.079 9.4368 20.079 13.9081C20.079 18.3793 23.6988 22.004 28.164 22.004Z" fill="#FFB9B9"/>
<path d="M39.4254 72.6034L39.1364 74.9163L40.5803 80.4102L42.6013 75.4949L39.4254 72.6034Z" fill="#FFB9B9"/>
<path d="M7.37408 73.4707L5.64159 93.9997C5.64159 93.9997 3.62033 97.7585 4.77534 100.939C4.77534 100.939 3.04285 105.276 3.62034 106.722C4.19784 108.168 4.48659 109.613 3.90908 110.192C3.33158 110.77 3.04284 126.962 3.90908 128.407C4.77532 129.853 5.35283 133.323 5.35283 133.323C5.35283 133.323 10.2616 134.479 11.4166 131.299C12.5716 128.118 11.9941 127.829 13.149 126.962C14.304 126.094 14.304 113.95 14.304 113.95C14.304 113.95 12.8603 112.505 13.7266 111.926C14.5928 111.348 15.1703 111.926 14.304 110.481C13.4378 109.035 11.9941 109.035 13.4378 108.457C14.2423 108.144 15.0157 107.757 15.7478 107.3L24.1215 85.3254C24.1215 85.3254 27.2977 109.902 27.8752 111.059C28.4527 112.215 29.319 110.77 28.4527 112.215C27.5865 113.661 27.2977 112.794 27.5865 113.661C27.8752 114.529 25.854 126.962 27.009 129.564C27.6831 131.068 28.2617 132.613 28.7415 134.19C28.7415 134.19 33.3615 136.214 33.9389 134.768C34.5164 133.323 34.2277 130.72 35.0939 130.431C35.9602 130.142 36.8264 129.564 36.8264 127.251C36.8264 124.938 38.5589 113.661 38.5589 113.661C38.5589 113.661 36.5377 112.794 37.1152 111.348C37.6927 109.902 37.6927 110.191 37.4039 109.035C37.1152 107.878 36.5377 107.589 37.1152 106.722C37.6927 105.854 37.6927 103.252 37.6927 103.252L41.1577 80.4101L38.4819 72.6033L7.37408 73.4707Z" fill="#2F2E41"/>
<path d="M29.0302 136.792C29.0302 136.792 28.164 135.925 27.8752 136.792C27.5865 137.66 27.5865 145.756 27.5865 145.756C27.5865 145.756 29.8965 147.491 29.8965 148.358C29.8965 149.225 31.629 152.117 35.6715 151.539C35.7119 151.533 35.7519 151.527 35.7914 151.52C36.3767 151.425 36.9318 151.195 37.413 150.849C37.8942 150.502 38.2882 150.047 38.564 149.522C38.8397 148.996 38.9895 148.414 39.0017 147.82C39.0138 147.227 38.8879 146.638 38.6339 146.102L34.5165 137.371C34.5165 137.371 31.629 134.479 29.0302 136.792Z" fill="#2F2E41"/>
<path d="M9.9728 136.792C9.9728 136.792 10.839 135.925 11.1278 136.792C11.4165 137.66 11.4165 145.756 11.4165 145.756C11.4165 145.756 9.10656 147.491 9.10656 148.358C9.10656 149.225 7.37407 152.117 3.33157 151.539C3.29115 151.533 3.25115 151.527 3.21159 151.52C2.62635 151.425 2.07119 151.195 1.59001 150.849C1.10883 150.502 0.714813 150.047 0.439098 149.522C0.163384 148.996 0.0135295 148.414 0.00138237 147.82C-0.0107648 147.227 0.115128 146.638 0.369108 146.102L4.48657 137.371C4.48657 137.371 7.37406 134.479 9.9728 136.792Z" fill="#2F2E41"/>
<path d="M22.0019 5.1388L20.5574 4.55971C20.5574 4.55971 23.5777 1.22998 27.78 1.51953L26.5981 0.216572C26.5981 0.216572 29.4871 -0.941587 32.1135 2.0986C33.4942 3.69676 35.0916 5.57531 36.0874 7.69148H37.6344L36.9888 9.11506L39.2486 10.5386L36.9291 10.2829C37.1488 11.5119 37.0736 12.7756 36.7097 13.9698L36.7719 15.095C36.7719 15.095 34.0833 10.9296 34.0833 10.3506V11.7983C34.0833 11.7983 32.6388 10.4953 32.6388 9.6267L31.8509 10.6401L31.4569 9.0476L26.5981 10.6401L27.386 9.33717L24.3657 9.77147L25.5476 8.17897C25.5476 8.17897 22.1333 10.061 22.0019 11.6535C21.8706 13.246 20.1635 15.2728 20.1635 15.2728L19.3756 13.8251C19.3756 13.8251 18.1937 7.31036 22.0019 5.1388Z" fill="#2F2E41"/>
<path d="M40.5802 31.8347H43.7972C44.0336 31.8346 44.263 31.9151 44.4476 32.0628C44.6323 32.2106 44.7612 32.417 44.8131 32.6479C45.3096 34.8491 46.5888 41.0886 46.3551 46.0026C46.0664 52.0745 46.6439 56.4116 46.3551 57.279C46.0664 58.1464 46.3551 58.4356 46.3551 59.303C46.3551 60.1705 47.2214 59.5922 46.3551 60.7487C45.4889 61.9053 45.4889 61.6161 45.4889 62.4836C45.4889 63.351 42.6014 76.6514 42.6014 76.6514C42.6014 76.6514 40.6163 73.3844 38.4326 74.0059L38.8477 62.1944L39.4252 57.2791L38.5589 48.6049L40.5802 31.8347Z" fill="#3F3D56"/>
<path d="M26.5758 28.7986C26.5758 28.7986 21.6671 28.62 20.079 26.5408C20.079 26.5408 9.82841 29.9552 8.67342 32.8466C7.51844 35.738 12.7159 48.7493 12.7159 48.7493C12.7159 48.7493 3.76469 75.3502 8.09591 75.3502C12.4271 75.3502 22.2446 78.8199 28.0196 76.7959C31.598 75.5531 35.2662 74.5865 38.992 73.9045C38.992 73.9045 39.5695 66.0977 38.992 64.652C38.4146 63.2063 36.9708 64.0737 37.837 62.0498C38.7033 60.0258 38.4145 59.7366 38.1258 58.8692C37.837 58.0018 38.7033 56.8452 38.7033 55.6887C38.7033 54.5321 38.4146 51.9298 38.4146 51.9298C38.4146 51.9298 46.2108 33.714 44.4783 31.9792C42.7458 30.2443 33.927 26.9016 33.927 26.9016C33.927 26.9016 31.4846 29.9552 26.5758 28.7986Z" fill="#3F3D56"/>
<path d="M3.90907 75.4949C3.90907 75.4949 1.31034 89.0844 5.64156 87.9279C9.97278 86.7713 7.95155 75.4949 7.95155 75.4949H3.90907Z" fill="#FFB9B9"/>
<path d="M10.5503 31.8347L9.52482 32.3482C9.12564 32.548 8.77807 32.8377 8.50931 33.1945C8.24055 33.5512 8.0579 33.9655 7.97565 34.4047L3.90908 56.1225C3.90908 56.1225 2.75408 58.7247 2.75408 59.0139C2.75408 59.303 3.33157 59.303 2.75408 60.1704C2.17659 61.0379 1.31033 60.7487 1.88784 61.327C2.21746 61.627 2.42339 62.0395 2.46534 62.4836L3.04283 76.6514C3.04283 76.6514 7.95156 75.2057 9.39531 76.6514C9.39531 76.6514 7.95157 72.3143 8.81781 70.8686C9.68405 69.4229 9.68405 67.3989 9.68405 67.3989C9.68405 67.3989 9.10655 67.3989 10.5503 65.9532C11.994 64.5075 12.2828 63.9292 11.994 63.6401C11.7053 63.351 11.4166 60.7487 11.4166 60.4596C11.4166 60.1704 14.304 40.7981 14.304 40.7981L10.5503 31.8347Z" fill="#3F3D56"/>
<path d="M70.6618 3.59741C70.2185 3.59791 69.7935 3.77447 69.4801 4.08835C69.1666 4.40224 68.9903 4.82781 68.9898 5.27171V76.0707C68.9903 76.5146 69.1666 76.9401 69.4801 77.254C69.7935 77.5679 70.2185 77.7444 70.6618 77.7449H174.328C174.771 77.7444 175.196 77.5678 175.51 77.254C175.823 76.9401 175.999 76.5146 176 76.0707V5.27171C176 4.82782 175.823 4.40226 175.51 4.08838C175.196 3.7745 174.771 3.59793 174.328 3.59741H70.6618Z" fill="#E6E6E6"/>
<path d="M73.0504 5.98926C72.6071 5.98976 72.1821 6.16631 71.8686 6.4802C71.5552 6.79408 71.3789 7.21966 71.3784 7.66356V73.6787C71.3789 74.1226 71.5552 74.5482 71.8686 74.8621C72.1821 75.176 72.6071 75.3525 73.0504 75.353H171.939C172.383 75.3525 172.808 75.1759 173.121 74.8621C173.435 74.5482 173.611 74.1226 173.611 73.6787V7.66356C173.611 7.21967 173.435 6.7941 173.121 6.48022C172.808 6.16634 172.383 5.98978 171.939 5.98926H73.0504Z" fill="white"/>
<path opacity="0.2" d="M78.756 60.9924L83.9858 57.1628L104.656 53.88L117.358 50.5974L124.331 53.3597L133.794 39.929L140.269 41.2966L149.982 30.6282L154.963 32.2695L166.418 13.3944V60.9661L78.756 60.9924Z" fill="#ECA359"/>
<path d="M79.3532 60.8728C79.2265 60.8728 79.105 60.8224 79.0154 60.7327C78.9258 60.643 78.8755 60.5213 78.8755 60.3945C78.8755 60.2676 78.9258 60.1459 79.0154 60.0562C79.105 59.9665 79.2265 59.9161 79.3532 59.9161C101.428 59.9161 122.48 55.4902 138.632 47.4537C153.777 39.9177 163.429 29.6986 165.111 19.4164C165.121 19.3544 165.143 19.295 165.176 19.2415C165.209 19.1881 165.253 19.1418 165.304 19.1051C165.355 19.0684 165.412 19.0421 165.473 19.0278C165.534 19.0134 165.598 19.0113 165.66 19.0214C165.722 19.0316 165.781 19.0539 165.834 19.087C165.888 19.1201 165.934 19.1634 165.971 19.2144C166.007 19.2655 166.033 19.3232 166.048 19.3844C166.062 19.4456 166.064 19.509 166.054 19.571C165.18 24.9122 162.343 30.1515 157.623 35.1436C152.968 40.0671 146.721 44.4972 139.057 48.3104C122.776 56.4115 101.572 60.8728 79.3532 60.8728Z" fill="#ECA359"/>
<path d="M170.029 60.9694H78.7832V15.8284H79.2609V60.4911H170.029V60.9694Z" fill="#E6E6E6"/>
</g>
<defs>
<clipPath id="clip0">
<rect width="176" height="151.614" fill="white"/>
</clipPath>
</defs>
</svg>
